<?xml version="1.0" encoding="UTF-8" standalone="no"?>
<!DOCTYPE svg PUBLIC "-//W3C//DTD SVG 1.1//EN" "http://www.w3.org/Graphics/SVG/1.1/DTD/svg11.dtd">
<svg width="100%" height="100%" viewBox="0 0 688 361" version="1.1" xmlns="http://www.w3.org/2000/svg" xmlns:xlink="http://www.w3.org/1999/xlink" xml:space="preserve" style="fill-rule:evenodd;clip-rule:evenodd;stroke-linecap:round;stroke-linejoin:round;stroke-miterlimit:1.41421;">
    <g transform="matrix(5.29358,0,0,3.02582,-943.149,-185.16)">
        <g id="Layer1">
            <rect x="178.169" y="61.193" width="129.969" height="119.307" style="fill:rgb(92,205,174);"/>
        </g>
    </g>
    <g transform="matrix(0.000696921,0,0,0.000696921,561.976,47.0771)">
        <g transform="matrix(1,0,0,1,-157871,-44592)">
            <g id="Layer_x0020_1">
                <path id="path10" d="M121521,53670.8L121521,61820.8C121442,64241.6 120958,66420.8 120067,68275C119342,69887.5 118208,71425 116596,72633.3C114984,73920.8 112804,74650 109900,74650C106992,74650 104734,73920.8 103121,72633.3C101508,71425 100458,69887.5 99733.5,68275C98846,66420.8 98362.7,64241.6 98279.3,61820.8L98279.3,26875C98362.7,24533.3 98841.8,22354.2 99733.5,20500C100458,18887.5 101508,17270.8 103121,16062.5C104734,14854.2 106996,14041.7 109900,14041.7C112808,14041.7 114984,14854.2 116596,16062.5C118208,17275 119342,18887.5 120067,20500C120954,22358.3 121442,24533.3 121521,26875L121521,35025L113371,35025L113371,26875C113371,25262.5 112967,24129.2 112079,23162.5C111675,22758.3 110950,22516.7 110063,22516.7C108529,22516.7 107804,23645.8 107400,24695.8C107163,25341.7 107079,26070.8 106996,26879.2L106996,61825C107079,63516.6 107563,64650 108371,65533.3C108775,65941.6 109338,66179.1 110063,66179.1C111921,66179.1 112646,65212.5 113050,64000C113288,63437.5 113371,62708.3 113371,61820.8L113371,53670.8L121521,53670.8L121521,53670.8ZM146921,63275C146684,67554.2 145392,70537.5 142567,72879.2C141113,74091.7 139096,74654.2 136434,74654.2C131184,74654.2 128604,71745.8 127313,68841.7C126588,67150 126104,65212.5 126025,63033.3L126025,40837.5C126267,36558.4 127554,33416.7 130379,30995.9C131754,29779.2 133771,29216.7 136434,29216.7C141679,29216.7 144342,32125 145634,34945.9C146359,36641.7 146842,38500 146921,40600L146921,63279.2L146921,63275.1L146921,63275ZM139254,40833.3C139337,39141.6 139012,37929.1 138204,36958.3C137800,36554.1 137154,36312.5 136429,36312.5C134892,36312.5 134246,37362.5 133925,38570.8C133683,39216.6 133604,39945.8 133683,40829.1L133683,63024.9C133604,64716.6 134008,65933.3 134733,66816.6C135137,67220.8 135700,67462.4 136429,67462.4C137958,67462.4 138687,66495.8 139008,65283.3C139250,64637.4 139333,63908.3 139250,63024.9L139250,40829.1L139254,40833.3L139254,40833.3ZM173175,74004.2L165025,74004.2L165025,71095.9C163654,72387.5 162446,73354.2 160912,74083.4C160100,74487.5 159296,74645.9 158571,74645.9C156312,74645.9 154779,73354.2 153808,71658.4C152758,70045.9 152279,67866.7 152279,66012.5L152279,37845.8C152279,35991.7 152762,33812.5 153808,32116.7C154779,30504.2 156312,29208.3 158571,29208.3C160100,29208.3 161721,30095.8 162929,30987.5C163654,31550 164300,32116.7 165025,32762.5L165025,14683.3L173175,14683.3L173175,74004.1L173175,74004.2ZM165025,39541.7C165025,38250 163812,36879.2 162604,36879.2C161392,36879.2 160425,38008.4 160425,39541.7L160425,64316.7C160425,65854.2 161392,66979.2 162604,66979.2C163812,66979.2 165025,65850 165025,64316.7L165025,39541.7ZM200129,58183.3L200129,63270.8C199887,67550 198600,70533.3 195692,72875C194237,74087.5 192221,74650 189558,74650C184312,74650 181650,71741.6 180358,68837.5C179633,67145.8 179150,65208.3 179066,63029.1L179066,40833.3C179308,36554.2 180679,33412.5 183587,30991.7C184962,29775 186979,29212.5 189642,29212.5C194887,29212.5 197550,32120.8 198842,34941.7C199566,36637.5 200050,38495.8 200129,40595.8L200129,53429.1L186650,53429.1L186650,63033.3C186733,64725 187212,65941.6 187941,66825C188346,67229.1 188908,67470.8 189637,67470.8C191171,67470.8 191896,66504.1 192216,65291.6C192458,64645.8 192537,63916.6 192537,63033.3L192537,58187.5L200125,58187.5L200129,58183.3L200129,58183.3ZM186650,47045.8L192542,47045.8L192542,40829.1C192542,39137.5 192221,37925 191412,36954.1C191008,36550 190362,36308.3 189638,36308.3C188100,36308.3 187454,37358.3 187054,38566.6C186813,39212.5 186733,39941.6 186650,40825L186650,47045.8L186650,47045.8ZM221862,38250C221137,38008.3 220333,37929.2 219604,37929.2C218316,37929.2 216779,38091.7 215491,39300C213954,40591.7 213712,41962.5 213712,43333.3L213712,74004.1L205562,74004.1L205562,29854.1L213712,29854.1L213712,34779.1C213795,34216.6 214358,32841.6 215650,31550C216941,30337.5 218879,29208.3 221862,29208.3L221862,38250ZM225421,74004.2L225421,14683.4L232284,14683.4C240350,14683.4 244713,16295.9 247050,20816.7C249309,25337.6 249634,32762.5 249634,44383.4C249634,56004.2 249309,63350.1 247050,67870.9C244713,72391.8 240350,74004.3 232284,74004.3L225421,74004.3L225421,74004.2ZM234142,65287.5C237125,65287.5 238821,64962.5 239709,62054.2C240113,60683.3 240438,58583.3 240517,55758.3C240600,52933.3 240600,49141.7 240600,44295.8C240600,39454.2 240600,35662.5 240517,32833.3C240438,30091.7 240113,27991.7 239709,26537.5C238825,23712.5 237130,23391.7 234142,23391.7L234142,65287.5ZM275546,63270.8C275308,67550 274017,70533.3 271192,72875C269738,74087.5 267721,74650 265058,74650C259808,74650 257229,71741.6 255938,68837.5C255213,67145.8 254725,65208.3 254650,63029.1L254650,40833.3C254892,36554.2 256184,33412.5 259004,30991.7C260379,29775 262396,29212.5 265059,29212.5C270304,29212.5 272967,32120.8 274259,34941.7C274984,36637.5 275467,38495.8 275546,40595.8L275546,63275L275546,63270.9L275546,63270.8ZM267879,40829.2C267962,39137.5 267637,37925 266829,36954.2C266425,36550 265779,36308.4 265054,36308.4C263516,36308.4 262871,37358.4 262550,38566.7C262308,39212.5 262229,39941.7 262308,40825L262308,63020.8C262229,64712.5 262633,65929.2 263358,66812.5C263762,67216.7 264325,67458.3 265054,67458.3C266587,67458.3 267312,66491.7 267633,65279.2C267875,64633.3 267958,63904.2 267875,63020.8L267875,40825L267879,40829.2L267879,40829.2ZM280975,14679.2L289125,14679.2L289125,22829.2L280975,22829.2L280975,14679.2ZM289125,29854.2L289125,75129.2C289125,77387.5 289125,80941.7 287996,83850C286867,86833.4 284367,89175 279762,89175C278475,89175 277583,89091.7 277021,88933.4C276696,88850 276458,88770.9 276212,88691.7L276212,81187.5C276454,81266.7 276696,81266.7 276937,81345.9C277500,81429.2 277987,81508.4 278475,81508.4C279846,81508.4 280492,80379.2 280812,79008.4C280896,78362.5 280975,77633.4 280975,76908.4C280975,76179.2 280975,75533.4 280975,75050L280975,29854.2L289125,29854.2L289125,29854.2ZM315738,63270.8C315500,67550 314205,70533.3 311384,72875C309930,74087.5 307913,74650 305250,74650C300000,74650 297421,71741.6 296130,68837.5C295405,67145.8 294921,65208.3 294842,63029.1L294842,40833.3C295084,36554.2 296371,33412.5 299196,30991.7C300571,29775 302588,29212.5 305251,29212.5C310496,29212.5 313159,32120.8 314451,34941.7C315176,36637.5 315659,38495.8 315738,40595.8L315738,63275L315738,63270.9L315738,63270.8ZM308071,40829.2C308154,39137.5 307829,37925 307021,36954.2C306617,36550 305971,36308.4 305246,36308.4C303713,36308.4 303063,37358.4 302742,38566.7C302500,39212.5 302421,39941.7 302500,40825L302500,63020.8C302421,64712.5 302825,65929.2 303550,66812.5C303954,67216.7 304517,67458.3 305246,67458.3C306779,67458.3 307504,66491.7 307829,65279.2C308071,64633.3 308154,63904.2 308071,63020.8L308071,40825L308071,40829.2L308071,40829.2Z"/>
                <g id="__833871744_">
                    <circle id="circle13" cx="44358.3" cy="44541.7" r="43679.2" style="fill:rgb(254,254,254);"/>
                    <path id="path15" d="M44541.7,0C69141.7,0 89083.4,19941.7 89083.4,44541.7C89083.4,69141.7 69141.7,89083.4 44541.7,89083.4C19941.7,89083.4 0,69141.7 0,44541.7C0,19941.7 19941.7,0 44541.7,0ZM44091.7,2304.17C43883.4,2304.17 43675,2308.34 43466.7,2312.5C20433.4,2645.84 1845.9,21437.5 1845.9,44545.8C1845.9,67683.3 20475.1,86487.5 43545.9,86779.1C32137.6,86491.6 22970.9,77141.6 22970.9,65666.6C22970.9,54008.3 32433.4,44545.8 44091.7,44545.8C55750,44545.8 65212.5,35083.3 65212.5,23425C65212.5,11766.7 55750,2304.2 44091.7,2304.2L44091.7,2304.17Z"/>
                    <path id="path17" d="M37425,27579.2L37425,11833.4C37425,11145.9 37675,10550.1 38179.2,10050.1C38679.2,9550.07 39275,9295.9 39966.7,9295.9L48175,9295.9C48854.2,9295.9 49441.7,9545.9 49937.5,10050.1C50433.3,10550.1 50679.2,11145.9 50679.2,11833.4L50679.2,27579.2C50679.2,28279.2 50429.2,28875 49937.5,29370.9C49441.7,29866.7 48841.7,30112.5 48141.7,30112.5L39966.7,30112.5C39258.3,30112.5 38654.2,29866.7 38162.5,29370.9C37670.8,28875 37429.2,28279.2 37429.2,27579.2L37425,27579.2L37425,27579.2ZM48079.2,27483.3L48079.2,11962.5L40058.4,11962.5L40058.4,27483.3L48079.2,27483.3Z"/>
                    <path id="path19" d="M40425,75179.2L44466.7,75179.2L44466.7,59658.4L40491.7,59658.4C40125,59658.4 39816.7,59529.2 39558.3,59275.1C39300,59020.9 39175,58708.4 39175,58341.7C39175,57979.2 39304.2,57666.7 39558.3,57412.6C39812.5,57158.4 40125,57029.2 40491.7,57029.2L47100,57029.2L47100,75183.4L49733.3,75183.4L49733.3,69704.3C49733.3,69350.1 49862.5,69041.8 50116.7,68779.3C50370.8,68516.8 50683.3,68387.6 51045.8,68387.6C51412.5,68387.6 51725,68516.8 51979.2,68770.9C52233.3,69029.3 52362.5,69337.6 52362.5,69704.3L52362.5,76500.1C52362.5,76866.8 52233.3,77179.3 51979.2,77437.6C51725,77691.8 51416.7,77816.8 51045.8,77816.8L40425,77816.8C40058.4,77816.8 39750,77683.4 39495.9,77420.9C39237.5,77154.3 39112.5,76837.6 39112.5,76470.9C39112.5,76116.8 39241.7,75812.6 39495.9,75558.4C39750,75308.4 40062.5,75183.4 40425,75183.4L40425,75179.3L40425,75179.2Z" style="fill:white;"/>
                </g>
            </g>
        </g>
    </g>
    <g id="Male-1" transform="matrix(1,0,0,1,-276.961,-185.664)">
        <path d="M595.573,238.791L590.325,238.791C586.326,238.791 582.928,240.29 580.129,243.239C577.33,246.238 575.93,249.836 575.98,254.084C575.93,258.283 577.33,261.881 580.129,264.83C580.779,265.48 581.428,266.08 582.128,266.629C582.678,265.58 583.377,264.63 584.277,263.781C586.426,261.631 588.975,260.432 591.924,260.282L591.924,259.332C592.174,247.337 598.172,241.14 609.867,240.74L668.593,240.74C669.343,240.69 670.043,240.59 670.743,240.54C673.541,240.19 676.14,239.64 678.539,238.891C680.938,243.839 682.138,249.287 682.188,255.134L682.188,259.782C684.787,260.082 687.036,261.232 688.985,263.181C690.035,264.181 690.835,265.28 691.434,266.48C692.034,265.98 692.634,265.43 693.234,264.83C695.983,261.882 697.382,258.283 697.382,254.085C697.382,249.836 695.983,246.238 693.234,243.239C690.385,240.29 686.986,238.791 683.038,238.791L678.739,238.791C690.585,234.892 697.282,225.446 698.781,210.502L623.711,210.502C609.017,211.202 600.021,218.499 596.672,232.393C596.172,234.393 595.823,236.542 595.573,238.791L595.573,238.841L595.573,238.791ZM594.723,240.74L594.623,240.74L594.673,240.74C594.723,240.69 594.723,240.69 594.723,240.74Z" style="fill:rgb(66,35,17);fill-rule:nonzero;"/>
        <path d="M591.924,259.332L591.924,296.967L609.467,296.967C609.767,294.119 610.966,291.62 613.066,289.52C615.565,287.021 618.563,285.772 622.112,285.772L631.158,285.772L631.158,284.223C631.108,282.773 631.658,281.524 632.708,280.474C633.757,279.424 634.957,278.925 636.406,278.925C637.856,278.925 639.105,279.424 640.155,280.474C641.204,281.524 641.704,282.773 641.704,284.223L641.704,285.772L651.35,285.772C654.899,285.772 657.898,287.021 660.397,289.52C662.496,291.62 663.695,294.119 664.045,296.967L682.188,296.967L682.188,288.371L682.188,283.823L682.188,259.782L682.188,255.134C682.138,249.287 680.938,243.839 678.539,238.891C676.14,239.64 673.541,240.19 670.743,240.54C670.043,240.59 669.343,240.69 668.593,240.74L609.867,240.74C598.172,241.14 592.174,247.337 591.924,259.333L591.924,259.332ZM625.361,281.224C624.811,281.723 624.161,281.973 623.411,281.923C622.662,281.873 622.062,281.573 621.612,281.024C621.112,280.474 620.862,279.824 620.912,279.024C620.912,278.325 621.162,277.725 621.712,277.275C622.262,276.775 622.912,276.525 623.661,276.525C624.411,276.575 625.061,276.875 625.561,277.425C626.06,277.975 626.31,278.625 626.26,279.424C626.21,280.124 625.91,280.724 625.361,281.224ZM650.451,278.025C650.95,278.575 651.2,279.224 651.15,280.024C651.1,280.774 650.85,281.374 650.301,281.823C649.701,282.323 649.001,282.573 648.252,282.523C647.502,282.523 646.952,282.223 646.502,281.673C646.003,281.124 645.753,280.474 645.803,279.674C645.853,278.925 646.102,278.325 646.652,277.875C647.202,277.375 647.802,277.125 648.551,277.125C649.301,277.175 649.951,277.475 650.451,278.025Z" style="fill:rgb(227,186,142);fill-rule:nonzero;"/>
        <path d="M623.411,281.923C624.161,281.973 624.811,281.723 625.361,281.224C625.91,280.724 626.21,280.124 626.26,279.424C626.31,278.625 626.06,277.975 625.561,277.425C625.061,276.875 624.411,276.575 623.661,276.525C622.912,276.525 622.262,276.775 621.712,277.275C621.162,277.725 620.912,278.325 620.912,279.024C620.863,279.824 621.112,280.474 621.612,281.024C622.062,281.573 622.662,281.873 623.411,281.923Z" style="fill-rule:nonzero;"/>
        <path d="M651.15,280.024C651.2,279.224 650.95,278.575 650.451,278.025C649.951,277.475 649.301,277.175 648.551,277.125C647.802,277.125 647.202,277.375 646.652,277.875C646.102,278.325 645.852,278.925 645.802,279.674C645.752,280.474 646.002,281.124 646.502,281.673C646.952,282.223 647.502,282.523 648.251,282.523C649.001,282.573 649.701,282.323 650.301,281.823C650.85,281.374 651.1,280.774 651.15,280.024Z" style="fill-rule:nonzero;"/>
        <path d="M591.924,260.282C588.975,260.432 586.426,261.631 584.277,263.781C583.377,264.63 582.678,265.58 582.128,266.629L582.078,266.679C581.178,268.379 580.729,270.278 580.729,272.377C580.729,275.726 581.928,278.625 584.277,281.024C586.426,283.173 588.975,284.323 591.924,284.522L591.924,260.282Z" style="fill:rgb(206,153,101);fill-rule:nonzero;"/>
        <path d="M580.728,272.377C580.728,270.278 581.178,268.379 582.078,266.679L569.833,266.679C570.383,270.928 571.432,274.526 573.081,277.525C576.68,284.222 582.978,287.871 591.924,288.471L591.924,284.522C588.975,284.322 586.426,283.173 584.277,281.024C581.928,278.625 580.728,275.726 580.728,272.377Z" style="fill:rgb(66,35,17);fill-rule:nonzero;"/>
        <path d="M609.467,296.967L591.924,296.967L591.924,316.41C591.924,323.657 593.723,330.254 597.372,336.102C598.321,337.651 599.471,339.2 600.721,340.65C601.97,342.099 603.319,343.549 604.819,344.898C606.718,346.647 608.717,348.247 610.817,349.596C613.965,351.645 617.364,353.245 620.912,354.444C621.212,354.544 621.512,354.644 621.862,354.744C626.31,356.094 631.108,356.743 636.156,356.743L639.705,356.743C644.553,356.593 649.151,355.744 653.449,354.294C654.699,353.845 655.948,353.395 657.198,352.845C660.347,351.446 663.296,349.696 666.044,347.547C667.094,346.698 668.144,345.848 669.193,344.898C672.242,342.149 674.741,339.251 676.69,336.102C680.339,330.254 682.138,323.657 682.188,316.41L682.188,296.967L664.045,296.967C663.695,294.119 662.496,291.62 660.397,289.52C657.898,287.021 654.899,285.772 651.35,285.772L641.704,285.772L641.704,291.67C641.704,293.119 641.204,294.368 640.155,295.418C639.155,296.418 637.956,296.917 636.556,296.967L636.306,296.967C634.907,296.917 633.707,296.418 632.708,295.418C631.658,294.368 631.108,293.119 631.158,291.67L631.158,285.772L622.112,285.772C618.563,285.772 615.565,287.021 613.066,289.52C610.967,291.62 609.767,294.119 609.467,296.967ZM654.299,302.665C653.849,306.563 652.15,309.962 649.251,312.861C645.752,316.31 641.554,318.059 636.656,318.059C631.758,318.059 627.56,316.31 624.111,312.861C621.162,309.962 619.463,306.564 619.013,302.665L654.299,302.665Z" style="fill:rgb(66,35,17);fill-rule:nonzero;"/>
        <path d="M649.251,312.861C652.15,309.962 653.849,306.564 654.299,302.665L619.013,302.665C619.463,306.564 621.162,309.962 624.111,312.861C627.56,316.31 631.758,318.059 636.656,318.059C641.554,318.059 645.752,316.31 649.251,312.861Z" style="fill:white;fill-rule:nonzero;"/>
        <path d="M688.985,263.181C687.036,261.232 684.787,260.082 682.188,259.782L682.188,283.823C684.787,283.473 687.036,282.323 688.985,280.374C691.334,278.025 692.534,275.126 692.584,271.777C692.534,269.928 692.184,268.229 691.484,266.679C691.434,266.63 691.434,266.53 691.434,266.48C690.834,265.28 690.035,264.181 688.985,263.181Z" style="fill:rgb(206,153,101);fill-rule:nonzero;"/>
        <path d="M688.985,280.374C687.036,282.323 684.787,283.473 682.188,283.823L682.188,288.371C694.683,287.271 701.78,280.024 703.529,266.679L691.484,266.68C692.184,268.229 692.534,269.928 692.584,271.777C692.534,275.126 691.334,278.025 688.985,280.374Z" style="fill:rgb(66,35,17);fill-rule:nonzero;"/>
        <path d="M631.158,284.222L631.158,291.669C631.108,293.119 631.658,294.368 632.708,295.418C633.707,296.418 634.907,296.917 636.306,296.967L636.556,296.967C637.956,296.917 639.155,296.418 640.155,295.418C641.204,294.368 641.704,293.119 641.704,291.67L641.704,285.772L641.704,284.223C641.704,282.773 641.204,281.524 640.155,280.474C639.105,279.424 637.856,278.925 636.406,278.925C634.957,278.925 633.757,279.424 632.708,280.474C631.658,281.524 631.108,282.773 631.158,284.223L631.158,284.222Z" style="fill:rgb(234,152,133);fill-rule:nonzero;"/>
        <path d="M661.146,361.891C662.296,361.342 663.545,360.992 664.895,360.892L653.449,360.892L653.25,373.287L653.15,373.537C652.95,374.486 652.9,374.836 653,374.686C653,374.636 653,374.586 653,374.536C653.05,374.436 653.05,374.386 653.1,374.336C653.15,374.137 653.2,373.937 653.25,373.737C653.25,373.637 653.25,373.537 653.3,373.437L653.449,372.387L653.449,372.937C653.449,372.837 653.449,372.737 653.499,372.687C653.549,372.487 653.599,372.237 653.649,371.987L653.749,371.937C655.998,366.49 658.447,363.141 661.146,361.891Z" style="fill:rgb(122,152,1);fill-rule:nonzero;"/>
        <path d="M664.895,360.892C663.545,360.992 662.296,361.342 661.146,361.891C658.447,363.141 655.998,366.49 653.749,371.937C653.699,372.087 653.649,372.187 653.649,372.337C653.599,372.387 653.599,372.487 653.549,372.587C653.499,372.637 653.499,372.637 653.499,372.687C653.449,372.737 653.449,372.837 653.449,372.937L653.449,373.037L653.399,373.037C653.35,373.287 653.3,373.487 653.25,373.737C653.2,373.937 653.15,374.137 653.1,374.337C653.05,374.487 653.05,374.586 653,374.736C652.95,374.986 652.9,375.236 652.85,375.536L652.9,375.086C652.85,375.336 652.8,375.536 652.75,375.786L650.001,385.982L638.355,428.915C639.505,429.065 640.455,429.565 641.304,430.414C642.304,431.414 642.804,432.613 642.804,434.013L642.804,442.709C642.804,444.109 642.304,445.308 641.304,446.308C640.255,447.308 639.055,447.807 637.656,447.857C636.256,447.807 635.057,447.308 634.057,446.308C633.008,445.308 632.508,444.109 632.508,442.709L632.508,434.013C632.508,432.613 633.008,431.414 634.057,430.414C634.857,429.565 635.806,429.065 636.906,428.915L625.261,385.982L622.512,375.786C622.312,374.837 622.112,373.887 621.862,373.037C621.712,372.638 621.612,372.288 621.512,371.938C619.763,366.29 616.914,362.792 613.066,361.442L607.568,360.892L600.87,360.892L600.87,372.038L596.172,372.038L596.172,372.638C596.322,372.638 596.522,372.638 596.722,372.638L596.722,521.228L676.29,521.228L676.29,454.355L676.29,372.188C676.44,372.188 676.59,372.188 676.74,372.188L676.74,372.038L674.391,372.038L674.391,360.892L664.895,360.892ZM653.649,497.587C653.649,497.037 653.849,496.537 654.249,496.138C654.649,495.738 655.099,495.538 655.648,495.588L670.093,495.588C670.642,495.538 671.092,495.738 671.492,496.138C671.892,496.538 672.092,497.037 672.092,497.587L672.092,497.637C672.092,498.187 671.892,498.637 671.492,499.037C671.092,499.436 670.642,499.636 670.093,499.636L655.648,499.636C655.099,499.636 654.649,499.436 654.249,499.037C653.849,498.637 653.649,498.187 653.649,497.637L653.649,497.587ZM618.613,495.588C619.163,495.538 619.613,495.738 620.013,496.138C620.413,496.537 620.612,497.037 620.612,497.587L620.612,497.637C620.612,498.187 620.413,498.637 620.013,499.036C619.613,499.436 619.163,499.636 618.613,499.636L604.169,499.636C603.619,499.636 603.169,499.436 602.82,499.036C602.37,498.637 602.17,498.187 602.17,497.637L602.17,497.587C602.17,497.037 602.37,496.538 602.82,496.138C603.169,495.738 603.619,495.538 604.169,495.588L618.613,495.588ZM662.896,511.531L662.696,511.531L662.696,511.332L662.896,511.531ZM667.444,506.883L667.644,507.033C667.694,507.083 667.594,507.133 667.444,507.233L667.444,506.883Z" style="fill:rgb(153,204,0);fill-rule:nonzero;"/>
        <path d="M654.249,496.138C653.849,496.537 653.649,497.037 653.649,497.587L653.649,497.637C653.649,498.187 653.849,498.637 654.249,499.036C654.649,499.436 655.099,499.636 655.648,499.636L670.093,499.636C670.642,499.636 671.092,499.436 671.492,499.036C671.892,498.637 672.092,498.187 672.092,497.637L672.092,497.587C672.092,497.037 671.892,496.538 671.492,496.138C671.092,495.738 670.642,495.538 670.093,495.588L655.648,495.588C655.099,495.538 654.649,495.738 654.249,496.138Z" style="fill:rgb(122,152,1);fill-rule:nonzero;"/>
        <path d="M620.013,496.138C619.613,495.738 619.163,495.538 618.613,495.588L604.169,495.588C603.619,495.538 603.17,495.738 602.82,496.138C602.37,496.538 602.17,497.037 602.17,497.587L602.17,497.637C602.17,498.187 602.37,498.637 602.82,499.037C603.17,499.436 603.619,499.636 604.169,499.636L618.613,499.636C619.163,499.636 619.613,499.436 620.013,499.037C620.413,498.637 620.613,498.187 620.613,497.637L620.613,497.587C620.613,497.037 620.413,496.538 620.013,496.138Z" style="fill:rgb(122,152,1);fill-rule:nonzero;"/>
        <path d="M667.644,507.033L667.444,506.883L667.444,507.233C667.594,507.133 667.694,507.083 667.644,507.033Z" style="fill:rgb(122,152,1);fill-rule:nonzero;"/>
        <path d="M676.74,372.187C676.59,372.187 676.44,372.187 676.29,372.187L676.29,454.354L690.784,454.354L690.784,386.831C690.784,377.285 686.136,372.387 676.79,372.187L676.74,372.187Z" style="fill:rgb(122,152,1);fill-rule:nonzero;"/>
        <path d="M638.355,356.743C638.205,356.743 638.106,356.743 638.006,356.743L636.156,356.743C631.108,356.743 626.31,356.094 621.862,354.744L621.862,373.037C622.112,373.887 622.312,374.836 622.512,375.786L625.261,385.982L650.001,385.982L652.75,375.786C652.8,375.536 652.85,375.336 652.9,375.086C652.95,374.936 652.95,374.836 653,374.736L653,374.686C652.9,374.836 652.95,374.486 653.15,373.537L653.25,373.287L653.449,360.892L653.449,354.295C649.151,355.744 644.553,356.594 639.705,356.744C639.255,356.744 638.805,356.744 638.356,356.744L638.355,356.743Z" style="fill:rgb(206,153,101);fill-rule:nonzero;"/>
        <path d="M621.512,371.937C621.612,372.287 621.712,372.637 621.862,373.037L621.862,360.892L607.568,360.892L613.066,361.442C616.914,362.791 619.763,366.29 621.512,371.937Z" style="fill:rgb(122,152,1);fill-rule:nonzero;"/>
        <path d="M653.749,371.937L653.649,371.987C653.599,372.237 653.549,372.487 653.499,372.687C653.499,372.637 653.499,372.637 653.549,372.587C653.599,372.487 653.599,372.387 653.649,372.337C653.649,372.187 653.699,372.087 653.749,371.937Z" style="fill:rgb(216,163,121);fill-rule:nonzero;"/>
        <path d="M653.449,372.937L653.449,372.387L653.299,373.437C653.25,373.537 653.25,373.637 653.25,373.737C653.3,373.487 653.35,373.287 653.399,373.037C653.399,372.987 653.399,372.987 653.449,372.937Z" style="fill:rgb(206,153,101);fill-rule:nonzero;"/>
        <path d="M652.9,375.086L652.85,375.536C652.9,375.236 652.95,374.986 653,374.736C652.95,374.836 652.95,374.936 652.9,375.086Z" style="fill:rgb(122,152,1);fill-rule:nonzero;"/>
        <path d="M650.001,385.982L625.261,385.982L636.906,428.914C637.156,428.865 637.406,428.865 637.656,428.865C637.906,428.865 638.106,428.865 638.355,428.914L650.001,385.982Z" style="fill:white;fill-rule:nonzero;"/>
        <path d="M634.057,430.414C633.008,431.414 632.508,432.613 632.508,434.012L632.508,442.709C632.508,444.108 633.008,445.308 634.057,446.308C635.057,447.307 636.256,447.807 637.656,447.857C639.055,447.807 640.255,447.307 641.304,446.308C642.304,445.308 642.804,444.108 642.804,442.709L642.804,434.013C642.804,432.613 642.304,431.414 641.304,430.414C640.455,429.564 639.505,429.065 638.355,428.915C638.106,428.865 637.906,428.865 637.656,428.865C637.406,428.865 637.156,428.865 636.906,428.915C635.806,429.065 634.857,429.564 634.057,430.414ZM635.257,434.262C635.207,433.563 635.457,433.013 635.906,432.563C636.356,432.063 636.956,431.813 637.656,431.863C638.355,431.813 638.955,432.063 639.405,432.563C639.855,433.013 640.105,433.563 640.105,434.262C640.105,434.962 639.855,435.562 639.405,436.012C638.955,436.462 638.355,436.711 637.656,436.711C636.956,436.712 636.356,436.462 635.906,436.012C635.456,435.562 635.207,434.962 635.257,434.263L635.257,434.262Z" style="fill:rgb(102,102,102);fill-rule:nonzero;"/>
        <path d="M635.906,432.563C635.457,433.013 635.207,433.563 635.257,434.262C635.207,434.962 635.457,435.562 635.906,436.012C636.356,436.462 636.956,436.711 637.656,436.711C638.355,436.711 638.955,436.462 639.405,436.012C639.855,435.562 640.105,434.962 640.105,434.262C640.105,433.563 639.855,433.013 639.405,432.563C638.955,432.063 638.355,431.813 637.656,431.863C636.956,431.813 636.356,432.063 635.906,432.563Z" style="fill:rgb(153,204,0);fill-rule:nonzero;"/>
        <path d="M690.784,454.354L676.29,454.354L676.29,553.065L674.791,553.065C671.192,553.615 668.493,556.214 666.744,560.912L667.444,560.162L666.644,561.062C666.594,561.212 666.594,561.362 666.544,561.512L666.494,561.612C666.344,561.961 666.194,562.311 666.094,562.711C666.044,562.911 665.994,563.111 665.944,563.311C665.844,563.711 665.794,564.161 665.794,564.61L665.794,577.205L666.094,577.205C665.944,577.305 665.844,577.405 665.794,577.455L665.745,583.953C665.795,585.502 666.344,586.802 667.444,587.851C668.443,588.901 669.693,589.45 671.242,589.45L671.392,589.45C672.942,589.45 674.241,588.901 675.341,587.851C676.34,586.802 676.84,585.502 676.89,583.953C676.94,585.352 677.49,586.552 678.539,587.501C679.539,588.551 680.789,589.101 682.338,589.101L682.488,589.101C684.037,589.101 685.337,588.551 686.436,587.501C687.336,586.552 687.836,585.452 687.936,584.103C687.886,583.953 687.886,583.853 687.836,583.703C687.886,583.653 687.936,583.603 687.986,583.603C687.986,583.753 687.986,583.953 687.936,584.103C688.186,585.152 688.685,586.102 689.485,586.852C690.485,587.951 691.734,588.501 693.284,588.501L693.433,588.501C694.983,588.501 696.282,587.951 697.382,586.852C698.381,585.802 698.881,584.553 698.881,583.003L698.881,563.661L698.881,563.011C698.581,561.562 698.282,560.112 697.982,558.663C696.732,555.864 694.333,554.065 690.785,553.215L690.785,454.355L690.784,454.354ZM687.836,564.31L687.836,563.661C687.836,563.561 687.836,563.461 687.836,563.311C687.886,563.611 687.936,563.911 687.936,564.26L687.836,564.31Z" style="fill:rgb(227,186,142);fill-rule:nonzero;"/>
        <path d="M632.508,535.572L642.204,535.572L642.204,747.887L655.499,747.887L655.499,747.737L655.499,578.155C654.949,577.305 654.699,576.306 654.749,575.256C654.699,574.157 654.949,573.157 655.499,572.307L655.499,535.572L663.345,535.572L663.345,527.525L609.617,527.525L609.617,533.323L610.267,535.572L619.213,535.572L619.213,747.887L632.508,747.887L632.508,747.737L632.508,535.572Z" style="fill:rgb(2,100,149);fill-rule:nonzero;"/>
        <path d="M663.345,527.525L676.29,527.525L676.29,521.228L596.722,521.228L596.722,527.525L663.345,527.525Z" style="fill:rgb(122,152,1);fill-rule:nonzero;"/>
        <path d="M596.722,372.637C596.522,372.637 596.322,372.637 596.172,372.637C586.826,372.837 582.178,377.685 582.228,387.231L582.228,454.804L596.722,454.804L596.722,372.637Z" style="fill:rgb(122,152,1);fill-rule:nonzero;"/>
        <path d="M596.722,454.804L582.228,454.804L582.228,553.615C578.579,554.464 576.18,556.264 574.981,559.063C574.631,560.512 574.331,561.961 574.081,563.411L574.081,583.403C574.081,584.952 574.581,586.202 575.581,587.251C576.68,588.351 578.03,588.901 579.579,588.901L579.679,588.901C581.178,588.901 582.428,588.351 583.477,587.251C584.277,586.502 584.777,585.602 585.027,584.552C584.977,584.402 584.977,584.203 585.027,584.053C585.077,584.053 585.077,584.053 585.127,584.103C585.077,584.253 585.077,584.402 585.027,584.552C585.127,585.852 585.627,586.951 586.576,587.901C587.626,588.951 588.925,589.5 590.475,589.5L590.675,589.5C592.174,589.5 593.423,588.951 594.423,587.901C595.423,586.952 595.972,585.752 596.072,584.403C596.072,585.952 596.622,587.201 597.672,588.251C598.721,589.301 600.071,589.85 601.62,589.85L601.72,589.85C603.22,589.85 604.469,589.301 605.519,588.251C606.618,587.201 607.168,585.952 607.218,584.403L607.168,577.905C607.068,577.805 606.968,577.705 606.868,577.605L607.168,577.605L607.168,565.01C607.168,564.561 607.118,564.111 607.018,563.711C606.968,563.511 606.918,563.311 606.868,563.161C606.718,562.761 606.618,562.362 606.468,562.012L606.418,561.912C606.368,561.762 606.368,561.612 606.318,561.512L605.519,560.562L606.218,561.312C604.469,556.664 601.77,554.065 598.172,553.515L596.722,553.515L596.722,527.526L596.722,521.228L596.722,454.805L596.722,454.804ZM585.127,564.71L585.027,564.66C585.027,564.31 585.077,564.01 585.127,563.711L585.127,564.71Z" style="fill:rgb(227,186,142);fill-rule:nonzero;"/>
        <path d="M679.089,372.187L679.089,372.037L677.34,372.037C677.94,372.087 678.539,372.137 679.089,372.187Z" style="fill:rgb(153,204,0);fill-rule:nonzero;"/>
    </g>
    <g id="Ninja-Female-1-Laptop-Sitting" transform="matrix(1,0,0,1,-365.852,-38.447)">
        <path d="M568.729,232.6C566.426,228.057 562.879,224.261 557.963,221.149C548.752,215.299 537.675,213.681 524.668,216.233C520.872,216.979 517.2,218.037 513.777,219.406C511.537,220.216 509.421,221.211 507.367,222.269C501.455,225.319 496.165,229.302 491.373,234.28C486.083,239.695 482.349,245.296 480.047,251.145C479.175,253.448 478.553,255.751 478.117,258.178C477.869,259.422 477.682,260.729 477.62,262.036L477.62,268.073C477.62,268.011 477.682,268.011 477.744,268.011C478.18,282.884 478.117,290.29 477.62,290.103L477.62,371.94L498.281,371.94L497.908,370.26L497.97,315.059L497.97,266.828C499.152,267.264 500.335,267.7 501.642,268.073C501.641,268.073 501.641,268.073 501.704,268.135C504.131,268.758 506.62,269.193 509.234,269.442C510.043,269.504 510.852,269.567 511.661,269.629C512.346,269.629 513.03,269.629 513.777,269.629C517.2,269.567 520.871,269.193 524.668,268.509C537.674,265.895 548.752,259.858 557.962,250.399C561.385,246.914 564.123,243.367 566.302,239.695C566.364,239.633 566.364,239.508 566.426,239.384C566.488,239.321 566.551,239.197 566.613,239.135C566.675,239.197 566.737,239.321 566.799,239.446C566.799,239.508 566.799,239.633 566.862,239.695C567.546,241.002 568.169,242.371 568.729,243.802C569.911,246.852 570.658,250.026 571.031,253.448C571.467,251.021 571.716,248.594 571.716,246.167C571.716,241.126 570.72,236.583 568.729,232.6ZM488.199,256.373L488.199,256L488.262,256.373L488.199,256.373ZM488.262,261.352C488.386,261.414 488.51,261.538 488.573,261.6L488.262,261.6L488.262,261.352C488.199,261.289 488.199,261.289 488.137,261.227L488.262,261.103L488.262,261.352ZM491,270.438C491.435,270.375 491.871,270.375 492.307,270.438L492.307,290.726C491.871,290.788 491.435,290.788 491,290.788C488.199,290.788 485.772,289.792 483.781,287.801C481.789,285.809 480.794,283.382 480.794,280.582C480.794,277.781 481.789,275.354 483.781,273.363C485.772,271.371 488.199,270.375 491,270.438Z" style="fill:rgb(254,207,5);fill-rule:nonzero;"/>
        <path d="M488.573,261.6C488.51,261.538 488.386,261.414 488.262,261.352L488.262,261.6L488.573,261.6Z" style="fill:rgb(140,80,55);fill-rule:nonzero;"/>
        <path d="M488.137,261.227C488.199,261.289 488.199,261.289 488.262,261.352L488.262,261.103L488.137,261.227Z" style="fill:white;fill-rule:nonzero;"/>
        <path d="M492.307,270.438C491.871,270.375 491.435,270.375 491,270.438C488.199,270.375 485.772,271.371 483.781,273.363C481.789,275.354 480.794,277.781 480.794,280.582C480.794,283.382 481.789,285.809 483.781,287.801C485.772,289.792 488.199,290.788 491,290.788C491.435,290.788 491.871,290.788 492.307,290.726L492.307,270.438Z" style="fill:rgb(253,219,218);fill-rule:nonzero;"/>
        <path d="M566.426,239.383C566.364,239.508 566.364,239.632 566.302,239.694L566.613,239.508L566.862,239.694C566.8,239.632 566.8,239.508 566.8,239.445C566.737,239.321 566.675,239.197 566.613,239.134C566.551,239.197 566.489,239.321 566.426,239.383Z" style="fill:rgb(194,131,98);fill-rule:nonzero;"/>
        <path d="M566.862,239.694L566.613,239.508L566.302,239.694C564.124,243.366 561.385,246.913 557.963,250.399C548.752,259.858 537.675,265.895 524.668,268.508C520.872,269.193 517.2,269.566 513.777,269.629C513.03,269.629 512.346,269.629 511.661,269.629C510.852,269.566 510.043,269.504 509.234,269.442C506.62,269.193 504.131,268.757 501.704,268.135L501.642,268.135L501.642,268.073C500.335,267.699 499.152,267.264 497.97,266.828L497.97,315.059C498.405,315.37 498.903,315.681 499.401,315.992C503.197,318.171 507.242,319.789 511.661,320.847L511.661,330.119L542.155,330.742L542.093,321.407C546.511,320.411 550.557,318.793 554.353,316.552C556.158,315.495 557.838,314.25 559.518,312.943C559.954,312.57 560.452,312.196 560.887,311.823C561.198,311.512 561.572,311.201 561.883,310.889C562.754,310.08 563.563,309.209 564.31,308.338C568.978,302.924 571.342,296.7 571.342,289.668L571.218,259.983L571.28,259.983C571.28,259.547 571.28,259.111 571.342,258.676C571.342,256.871 571.218,255.129 571.031,253.448C570.658,250.026 569.911,246.852 568.729,243.802C568.169,242.371 567.546,241.002 566.862,239.695L566.862,239.694Z" style="fill:rgb(253,219,218);fill-rule:nonzero;"/>
        <path d="M564.31,308.338C563.564,309.209 562.755,310.08 561.883,310.889C561.572,311.2 561.199,311.511 560.888,311.823C560.452,312.196 559.954,312.569 559.518,312.943C557.838,314.25 556.158,315.494 554.353,316.552C550.557,318.793 546.512,320.411 542.093,321.407L542.155,330.742L542.155,334.849C545.329,336.28 548.254,338.272 550.93,340.948C555.162,345.117 557.9,349.847 559.207,355.261C559.705,357.44 559.954,359.804 559.954,362.232L559.954,369.388C560.016,369.451 560.141,369.513 560.203,369.575C560.763,370.011 561.261,370.446 561.759,371.006C562.506,371.753 563.19,372.5 563.75,373.309L564.31,373.309L564.31,369.575L564.31,308.338Z" style="fill:rgb(253,175,23);fill-rule:nonzero;"/>
        <path d="M581.3,371.006C581.86,370.446 582.358,370.011 582.918,369.575L564.31,369.575L564.31,373.309L563.937,373.496C565.928,376.421 566.986,379.719 567.049,383.453L567.049,384.324L576.072,384.324C576.01,384.138 576.01,383.951 576.072,383.764C576.01,383.64 576.01,383.515 576.072,383.453C576.135,378.599 577.877,374.429 581.3,371.006Z" style="fill:rgb(240,110,170);fill-rule:nonzero;"/>
        <path d="M582.918,369.575C582.358,370.011 581.86,370.446 581.3,371.006C577.877,374.429 576.135,378.599 576.072,383.453C576.01,383.515 576.01,383.64 576.072,383.764C576.01,383.951 576.01,384.138 576.072,384.324L612.043,384.324C612.043,384.138 612.043,383.951 612.105,383.764C612.105,383.64 612.105,383.515 612.105,383.453C612.043,378.599 610.238,374.429 606.816,371.006C606.256,370.446 605.633,369.886 605.073,369.451C604.824,369.264 604.575,369.139 604.389,368.953C602.397,367.521 600.219,366.588 597.916,366.152L593.435,365.779C589.826,365.841 586.59,366.899 583.789,368.953C583.478,369.14 583.229,369.388 582.918,369.575Z" style="fill:rgb(247,172,167);fill-rule:nonzero;"/>
        <path d="M559.207,355.261C557.9,349.847 555.162,345.117 550.93,340.948C548.254,338.272 545.329,336.28 542.155,334.849L542.155,330.742L511.661,330.119L509.981,330.119C509.981,343.748 509.981,357.44 509.981,371.131L498.281,371.94L492.867,371.94L492.867,399.447L533.567,399.447L533.505,384.324L531.016,384.324L531.016,383.453C531.078,380.155 531.949,377.23 533.505,374.616L533.38,337.712C533.38,337.463 533.443,337.214 533.567,337.027C533.505,336.965 533.505,336.903 533.505,336.841C533.505,336.343 533.629,335.907 533.816,335.534L533.816,336.529C533.878,336.467 533.878,336.467 533.94,336.405C534.314,336.032 534.749,335.845 535.247,335.845C535.745,335.845 536.181,336.032 536.554,336.405C536.928,336.779 537.114,337.214 537.114,337.712L537.239,370.135C537.425,369.949 537.674,369.762 537.923,369.575C540.164,367.833 542.964,366.588 546.262,365.779C546.698,365.717 547.632,365.717 549.063,365.779C551.614,365.717 554.042,366.215 556.282,367.211C557.589,367.771 558.771,368.455 559.954,369.389L559.954,362.232C559.954,359.805 559.705,357.44 559.207,355.262L559.207,355.261Z" style="fill:rgb(240,110,170);fill-rule:nonzero;"/>
        <path d="M533.505,336.84C533.505,336.903 533.505,336.965 533.567,337.027C533.443,337.214 533.38,337.463 533.38,337.712L533.505,374.616C534.252,373.309 535.185,372.127 536.305,371.006C536.617,370.695 536.928,370.446 537.239,370.135L537.114,337.712C537.114,337.214 536.928,336.778 536.554,336.405C536.181,336.031 535.745,335.845 535.247,335.845C534.749,335.845 534.314,336.031 533.94,336.405C533.878,336.467 533.878,336.467 533.816,336.529L533.816,335.534C533.629,335.907 533.505,336.343 533.505,336.841L533.505,336.84Z" style="fill:rgb(205,94,145);fill-rule:nonzero;"/>
        <path d="M546.263,365.779C542.965,366.588 540.164,367.832 537.924,369.575C537.675,369.762 537.426,369.948 537.239,370.135C536.928,370.446 536.617,370.695 536.305,371.006C535.185,372.127 534.252,373.309 533.505,374.616C531.949,377.23 531.078,380.155 531.016,383.453L531.016,384.324L567.048,384.324L567.048,383.453C566.986,379.719 565.928,376.421 563.937,373.496C563.875,373.434 563.812,373.371 563.75,373.309C563.19,372.5 562.505,371.753 561.759,371.006C561.261,370.446 560.763,370.011 560.203,369.575C560.141,369.513 560.016,369.451 559.954,369.388C558.771,368.455 557.589,367.77 556.282,367.21C554.042,366.215 551.615,365.717 549.063,365.779C547.632,365.717 546.698,365.717 546.263,365.779Z" style="fill:rgb(253,219,218);fill-rule:nonzero;"/>
        <path d="M537.239,384.324L533.505,384.324L533.567,399.447L537.301,399.447L537.239,384.324Z" style="fill:rgb(205,94,145);fill-rule:nonzero;"/>
        <path d="M560.079,384.324L537.239,384.324L537.301,399.447L560.079,399.447L560.079,384.324Z" style="fill:rgb(240,110,170);fill-rule:nonzero;"/>
        <path d="M501.704,268.135L501.642,268.073L501.642,268.135L501.704,268.135Z" style="fill:rgb(194,131,98);fill-rule:nonzero;"/>
        <path d="M499.401,315.992C498.903,315.681 498.406,315.37 497.97,315.059L497.908,370.26L498.281,371.94L509.981,371.131C509.981,357.44 509.981,343.748 509.981,330.119L511.661,330.119L511.661,320.847C507.243,319.789 503.197,318.171 499.401,315.992Z" style="fill:rgb(253,175,23);fill-rule:nonzero;"/>
        <path d="M571.343,270.438L571.343,290.726C573.645,290.477 575.637,289.481 577.317,287.801C578.002,287.116 578.562,286.369 579.06,285.622C579.869,284.129 580.304,282.449 580.304,280.582C580.242,277.781 579.246,275.354 577.317,273.363C575.637,271.682 573.645,270.687 571.343,270.438Z" style="fill:rgb(247,172,167);fill-rule:nonzero;"/>
        <path d="M629.248,293.569L621.078,293.569C619.697,293.856 618.432,294.317 617.281,295.065C614.462,296.791 612.275,299.898 610.722,304.385L592.771,380.216C592.598,380.849 592.714,381.482 593.001,382.057C593.289,382.69 593.749,383.093 594.267,383.266C594.325,383.323 594.382,383.323 594.44,383.323L594.957,383.323C595.13,383.266 595.36,383.208 595.59,383.093C595.705,383.151 595.82,383.208 595.993,383.266C596.051,383.323 596.108,383.323 596.166,383.323L596.683,383.323C596.971,383.266 597.201,383.151 597.489,382.978C598.007,382.69 598.409,382.23 598.582,381.597L616.59,305.363C619.064,297.654 623.322,293.741 629.248,293.569Z" style="fill:rgb(115,115,117);fill-rule:nonzero;"/>
        <path d="M702.605,293.569L629.248,293.569C623.322,293.741 619.065,297.654 616.591,305.363L598.582,381.597C598.41,382.23 598.007,382.69 597.489,382.978C597.201,383.151 596.971,383.266 596.684,383.323L687.761,383.323C688.624,383.323 689.43,383.496 690.178,383.899C690.178,383.668 690.178,383.438 690.235,383.208L709.797,300.703C710.258,296.158 707.841,293.799 702.605,293.569ZM663.712,331.829C662.273,333.038 660.547,333.671 658.534,333.671C656.52,333.671 654.794,333.038 653.355,331.829C651.917,330.564 651.169,329.01 651.169,327.227C651.169,325.443 651.917,324.005 653.356,322.796C654.794,321.531 656.52,320.898 658.534,320.898C660.547,320.898 662.273,321.531 663.712,322.796C665.15,324.005 665.841,325.443 665.841,327.227C665.841,329.01 665.15,330.564 663.712,331.83L663.712,331.829Z" style="fill:rgb(36,35,77);fill-rule:nonzero;"/>
        <path d="M658.534,333.671C660.547,333.671 662.273,333.038 663.712,331.829C665.15,330.564 665.841,329.01 665.841,327.227C665.841,325.443 665.15,324.005 663.712,322.796C662.273,321.531 660.547,320.898 658.534,320.898C656.52,320.898 654.794,321.531 653.355,322.796C651.917,324.005 651.169,325.443 651.169,327.227C651.169,329.01 651.917,330.564 653.356,331.83C654.794,333.038 656.52,333.671 658.534,333.671Z" style="fill:rgb(204,204,204);fill-rule:nonzero;"/>
        <path d="M692.594,397.247C693.918,395.693 694.55,393.795 694.55,391.551L694.55,391.436C694.608,389.422 694.033,387.638 692.939,386.2C692.824,386.027 692.709,385.855 692.594,385.682C691.846,384.819 691.041,384.244 690.178,383.899C689.43,383.496 688.624,383.323 687.761,383.323L596.683,383.323L596.166,383.323L594.957,383.323L594.439,383.323L590.182,383.323C589.607,383.323 589.031,383.323 588.513,383.381C590.009,383.611 591.333,384.359 592.483,385.682C593.807,387.236 594.439,389.192 594.439,391.436L594.439,391.551C594.439,393.795 593.807,395.693 592.483,397.247C591.505,398.34 590.412,399.03 589.204,399.375L689.315,399.375C690.523,399.088 691.616,398.34 692.594,397.247Z" style="fill:rgb(22,15,66);fill-rule:nonzero;"/>
        <path d="M512.797,383.323C510.899,383.323 509.288,384.129 507.965,385.682C506.641,387.236 506.008,389.192 506.008,391.436L506.008,391.551C506.008,393.795 506.641,395.693 507.965,397.247C508.943,398.34 510.036,399.088 511.244,399.375L589.204,399.375C590.412,399.03 591.505,398.34 592.483,397.247C593.807,395.693 594.44,393.795 594.44,391.551L594.44,391.436C594.44,389.192 593.807,387.236 592.483,385.682C591.333,384.359 590.009,383.611 588.514,383.381C588.226,383.323 587.996,383.323 587.708,383.323C587.651,383.323 587.651,383.323 587.593,383.323L512.797,383.323Z" style="fill:rgb(115,115,117);fill-rule:nonzero;"/>
        <path d="M594.957,383.323L596.166,383.323C596.108,383.323 596.051,383.323 595.993,383.266C595.82,383.208 595.705,383.151 595.59,383.093C595.36,383.208 595.13,383.266 594.957,383.323Z" style="fill:rgb(36,35,77);fill-rule:nonzero;"/>
        <path d="M531.024,279.499C531.286,278.824 531.661,278.225 532.186,277.7C533.16,276.763 534.322,276.276 535.672,276.276C537.021,276.276 538.183,276.763 539.12,277.7C539.682,278.225 540.057,278.824 540.282,279.499" style="fill:none;stroke:rgb(140,80,55);stroke-width:2.25px;"/>
        <path d="M547.967,279.499C548.23,278.824 548.604,278.225 549.129,277.7C550.104,276.763 551.266,276.276 552.615,276.276C553.964,276.276 555.126,276.763 556.063,277.7C556.626,278.225 557.001,278.824 557.225,279.499" style="fill:none;stroke:rgb(140,80,55);stroke-width:2.25px;"/>
        <path d="M538.209,286.998C538.528,287.819 538.984,288.549 539.622,289.187C540.808,290.327 542.221,290.92 543.863,290.92C545.505,290.92 546.918,290.327 548.058,289.187C548.742,288.549 549.198,287.819 549.472,286.998" style="fill:none;stroke:rgb(231,140,118);stroke-width:2.74px;"/>
    </g>
    <g id="Python-Logo" transform="matrix(0.498737,0,0,0.498737,441.803,273.666)">
        <path id="path46" d="M184.613,61.929C184.613,47.367 180.461,39.891 172.157,39.482C168.852,39.326 165.626,39.852 162.488,41.071C159.983,41.967 158.296,42.854 157.409,43.751L157.409,78.509C162.721,81.843 167.439,83.392 171.552,83.149C180.256,82.574 184.613,75.507 184.613,61.929ZM194.858,62.534C194.858,69.932 193.123,76.072 189.633,80.956C185.744,86.482 180.354,89.328 173.463,89.484C168.268,89.65 162.916,88.022 157.409,84.611L157.409,116.201L148.5,113.024L148.5,42.903C149.963,41.11 151.844,39.57 154.125,38.263C159.427,35.174 165.87,33.585 173.453,33.507L173.58,33.634C180.51,33.546 185.851,36.392 189.604,42.162C193.103,47.455 194.858,54.239 194.858,62.534Z" style="fill:rgb(100,100,100);fill-rule:nonzero;"/>
        <path id="path48" d="M249.305,83.266C249.305,93.188 248.311,100.06 246.322,103.881C244.324,107.702 240.523,110.753 234.908,113.024C230.357,114.817 225.434,115.792 220.151,115.957L218.68,110.343C224.05,109.612 227.832,108.881 230.025,108.15C234.343,106.688 237.306,104.446 238.934,101.444C240.24,98.998 240.883,94.329 240.883,87.418L240.883,85.098C234.791,87.866 228.407,89.241 221.73,89.241C217.344,89.241 213.475,87.866 210.141,85.098C206.398,82.086 204.527,78.265 204.527,73.636L204.527,36.558L213.436,33.507L213.436,70.828C213.436,74.815 214.722,77.885 217.295,80.039C219.869,82.194 223.202,83.227 227.286,83.149C231.37,83.061 235.747,81.482 240.396,78.392L240.396,34.852L249.305,34.852L249.305,83.266Z" style="fill:rgb(100,100,100);fill-rule:nonzero;"/>
        <path id="path50" d="M284.082,88.997C283.02,89.085 282.045,89.124 281.149,89.124C276.109,89.124 272.181,87.925 269.374,85.517C266.577,83.11 265.173,79.786 265.173,75.546L265.173,40.457L259.071,40.457L259.071,34.852L265.173,34.852L265.173,19.968L274.072,16.8L274.072,34.852L284.082,34.852L284.082,40.457L274.072,40.457L274.072,75.302C274.072,78.646 274.969,81.014 276.762,82.398C278.302,83.539 280.749,84.192 284.082,84.357L284.082,88.997Z" style="fill:rgb(100,100,100);fill-rule:nonzero;"/>
        <path id="path52" d="M338.023,88.266L329.114,88.266L329.114,53.878C329.114,50.379 328.295,47.367 326.668,44.852C324.786,42.006 322.174,40.583 318.821,40.583C314.737,40.583 309.63,42.737 303.499,47.046L303.499,88.266L294.59,88.266L294.59,6.069L303.499,3.262L303.499,40.7C309.191,36.558 315.41,34.482 322.164,34.482C326.882,34.482 330.703,36.07 333.627,39.238C336.561,42.406 338.023,46.354 338.023,51.071L338.023,88.266Z" style="fill:rgb(100,100,100);fill-rule:nonzero;"/>
        <path id="path54" d="M385.374,60.526C385.374,54.931 384.312,50.311 382.197,46.656C379.682,42.201 375.773,39.852 370.49,39.609C360.724,40.174 355.85,47.172 355.85,60.584C355.85,66.735 356.864,71.871 358.911,75.994C361.523,81.248 365.441,83.841 370.666,83.753C380.471,83.675 385.374,75.936 385.374,60.526ZM395.131,60.584C395.131,68.548 393.094,75.176 389.029,80.468C384.556,86.395 378.376,89.367 370.49,89.367C362.673,89.367 356.581,86.395 352.185,80.468C348.199,75.176 346.21,68.548 346.21,60.584C346.21,53.099 348.365,46.802 352.673,41.675C357.225,36.236 363.209,33.507 370.607,33.507C378.005,33.507 384.029,36.236 388.669,41.675C392.977,46.802 395.131,53.099 395.131,60.584Z" style="fill:rgb(100,100,100);fill-rule:nonzero;"/>
        <path id="path56" d="M446.206,88.266L437.297,88.266L437.297,51.929C437.297,47.942 436.098,44.833 433.7,42.591C431.303,40.359 428.105,39.277 424.119,39.365C419.889,39.443 415.863,40.827 412.042,43.507L412.042,88.266L403.133,88.266L403.133,42.406C408.26,38.673 412.978,36.236 417.286,35.096C421.351,34.033 424.938,33.507 428.028,33.507C430.143,33.507 432.131,33.712 434.002,34.121C437.502,34.93 440.348,36.431 442.541,38.634C444.987,41.071 446.206,43.995 446.206,47.416L446.206,88.266Z" style="fill:rgb(100,100,100);fill-rule:nonzero;"/>
        <path id="path1948" d="M60.51,6.398C55.927,6.419 51.549,6.81 47.698,7.492C36.351,9.496 34.291,13.692 34.291,21.429L34.291,31.648L61.104,31.648L61.104,35.054L34.291,35.054L24.229,35.054C16.436,35.054 9.613,39.738 7.479,48.648C5.017,58.861 4.908,65.234 7.479,75.898C9.385,83.836 13.936,89.492 21.729,89.492L30.948,89.492L30.948,77.242C30.948,68.392 38.605,60.585 47.698,60.585L74.479,60.585C81.934,60.585 87.885,54.447 87.885,46.96L87.885,21.429C87.885,14.163 81.755,8.704 74.479,7.492C69.873,6.725 65.094,6.377 60.51,6.398ZM46.01,14.617C48.78,14.617 51.041,16.915 51.041,19.742C51.041,22.558 48.78,24.835 46.01,24.835C43.231,24.835 40.979,22.558 40.979,19.742C40.979,16.915 43.231,14.617 46.01,14.617Z" style="fill:url(#_Linear1);fill-rule:nonzero;"/>
        <path id="path1950" d="M91.229,35.054L91.229,46.96C91.229,56.191 83.403,63.96 74.479,63.96L47.698,63.96C40.362,63.96 34.291,70.239 34.291,77.585L34.291,103.117C34.291,110.383 40.61,114.657 47.698,116.742C56.185,119.237 64.324,119.688 74.479,116.742C81.229,114.787 87.885,110.854 87.885,103.117L87.885,92.898L61.104,92.898L61.104,89.492L101.291,89.492C109.084,89.492 111.988,84.056 114.698,75.898C117.497,67.499 117.378,59.422 114.698,48.648C112.772,40.891 109.094,35.054 101.291,35.054L91.229,35.054ZM76.166,99.71C78.946,99.71 81.198,101.988 81.198,104.804C81.198,107.631 78.946,109.929 76.166,109.929C73.397,109.929 71.135,107.631 71.135,104.804C71.135,101.988 73.397,99.71 76.166,99.71Z" style="fill:url(#_Linear2);fill-rule:nonzero;"/>
        <path id="text3004" d="M463.554,26.909L465.116,26.909L465.116,17.113L468.816,17.113L468.816,15.945L459.854,15.945L459.854,17.113L463.554,17.113L463.554,26.909M470.201,26.909L471.536,26.909L471.536,17.962L474.432,26.908L475.918,26.908L478.936,17.993L478.936,26.909L480.392,26.909L480.392,15.945L478.466,15.945L475.168,25.338L472.355,15.945L470.201,15.945L470.201,26.909" style="fill:rgb(100,100,100);fill-rule:nonzero;"/>
        <g id="path1894" transform="matrix(0.73406,0,0,0.809524,16.2496,27.0094)">
            <path d="M110.467,132.286C110.467,137.007 88.371,140.892 61.519,140.892C34.667,140.892 12.571,137.007 12.571,132.286C12.571,127.564 34.667,123.679 61.519,123.679C88.371,123.679 110.467,127.564 110.467,132.286Z" style="fill:url(#_Radial3);fill-rule:nonzero;"/>
        </g>
    </g>
    <defs>
        <linearGradient id="_Linear1" x1="0" y1="0" x2="1" y2="0" gradientUnits="userSpaceOnUse" gradientTransform="matrix(61.3261,53.2723,-53.2723,61.3261,5.59137,6.39705)"><stop offset="0" style="stop-color:rgb(90,159,212);stop-opacity:1"/><stop offset="1" style="stop-color:rgb(48,105,152);stop-opacity:1"/></linearGradient>
        <linearGradient id="_Linear2" x1="0" y1="0" x2="1" y2="0" gradientUnits="userSpaceOnUse" gradientTransform="matrix(-21.8995,-31.2832,31.2832,-21.8995,75.5221,103.945)"><stop offset="0" style="stop-color:rgb(255,212,59);stop-opacity:1"/><stop offset="1" style="stop-color:rgb(255,232,115);stop-opacity:1"/></linearGradient>
        <radialGradient id="_Radial3" cx="0" cy="0" r="1" gradientUnits="userSpaceOnUse" gradientTransform="matrix(6.91867e-07,-8.60669,41.7191,1.35999e-05,61.5189,132.286)"><stop offset="0" style="stop-color:rgb(184,184,184);stop-opacity:0.22104"/><stop offset="1" style="stop-color:rgb(127,127,127);stop-opacity:0"/></radialGradient>
    </defs>
</svg>
